<svg width="787" height="196" viewBox="0 0 787 196" fill="none" xmlns="http://www.w3.org/2000/svg">
    <path d="M35.1499 39.1818V157H10.2401V39.1818H35.1499ZM137.991 39.1818V157H116.475L65.2171 82.8459H64.3542V157H39.4444V39.1818H61.3052L112.16 113.278H113.196V39.1818H137.991ZM137.884 59.7195V39.1818H234.647V59.7195H198.577V157H173.954V59.7195H137.884ZM234.382 157V39.1818H313.771V59.7195H259.292V87.7933H309.687V108.331H259.292V136.462H314.002V157H234.382ZM395.499 77.2656C394.694 74.4659 393.562 71.9922 392.105 69.8445C390.648 67.6584 388.864 65.8175 386.755 64.3217C384.684 62.7876 382.306 61.6179 379.621 60.8125C376.975 60.0071 374.041 59.6044 370.82 59.6044C364.798 59.6044 359.506 61.1001 354.942 64.0916C350.416 67.0831 346.888 71.4361 344.356 77.1506C341.825 82.8267 340.56 89.7685 340.56 97.9759C340.56 106.183 341.806 113.163 344.299 118.916C346.792 124.669 350.32 129.06 354.884 132.09C359.448 135.082 364.837 136.577 371.05 136.577C376.687 136.577 381.501 135.58 385.489 133.586C389.516 131.553 392.584 128.696 394.694 125.014C396.842 121.332 397.915 116.979 397.915 111.955L402.978 112.703H372.603V93.9489H421.905V108.791C421.905 119.146 419.719 128.044 415.346 135.484C410.974 142.886 404.953 148.601 397.283 152.628C389.612 156.616 380.829 158.611 370.935 158.611C359.889 158.611 350.186 156.175 341.825 151.305C333.464 146.396 326.945 139.435 322.266 130.422C317.625 121.371 315.305 110.632 315.305 98.206C315.305 88.6562 316.685 80.142 319.447 72.6633C322.246 65.1463 326.158 58.7798 331.182 53.5639C336.207 48.348 342.055 44.3785 348.729 41.6555C355.402 38.9325 362.631 37.571 370.417 37.571C377.09 37.571 383.303 38.549 389.056 40.505C394.809 42.4226 399.91 45.1456 404.359 48.674C408.846 52.2024 412.508 56.402 415.346 61.2727C418.185 66.1051 420.006 71.4361 420.812 77.2656H395.499ZM424.416 157V39.1818H470.899C479.797 39.1818 487.39 40.7734 493.68 43.9567C500.008 47.1016 504.821 51.5696 508.12 57.3608C511.456 63.1136 513.125 69.8828 513.125 77.6683C513.125 85.4922 511.437 92.223 508.062 97.8608C504.687 103.46 499.797 107.756 493.392 110.747C487.026 113.739 479.317 115.234 470.266 115.234H439.143V95.2145H466.239C470.995 95.2145 474.945 94.5625 478.09 93.2585C481.235 91.9545 483.574 89.9986 485.108 87.3906C486.681 84.7827 487.467 81.5419 487.467 77.6683C487.467 73.7564 486.681 70.4581 485.108 67.7734C483.574 65.0888 481.216 63.0561 478.032 61.6754C474.887 60.2564 470.918 59.5469 466.124 59.5469H449.326V157H424.416ZM488.042 103.384L517.324 157H489.826L461.176 103.384H488.042ZM514.528 157V39.1818H593.918V59.7195H539.438V87.7933H589.833V108.331H539.438V136.462H594.148V157H514.528ZM617.829 157H591.136L631.809 39.1818H663.909L704.525 157H677.831L648.319 66.1051H647.399L617.829 157ZM616.161 110.69H679.212V130.134H616.161V110.69ZM683.622 59.7195V39.1818H780.384V59.7195H744.314V157H719.692V59.7195H683.622Z" fill="black" />
</svg>
    