<svg width="787" height="258" viewBox="0 0 787 258" fill="none" xmlns="http://www.w3.org/2000/svg">
    <path d="M35.1499 39.1818V157H10.2401V39.1818H35.1499ZM137.991 39.1818V157H116.475L65.2171 82.8459H64.3542V157H39.4444V39.1818H61.3052L112.16 113.278H113.196V39.1818H137.991ZM137.884 59.7195V39.1818H234.647V59.7195H198.577V157H173.954V59.7195H137.884ZM234.382 157V39.1818H313.771V59.7195H259.292V87.7933H309.687V108.331H259.292V136.462H314.002V157H234.382ZM395.499 77.2656C394.694 74.4659 393.562 71.9922 392.105 69.8445C390.648 67.6584 388.864 65.8175 386.755 64.3217C384.684 62.7876 382.306 61.6179 379.621 60.8125C376.975 60.0071 374.041 59.6044 370.82 59.6044C364.798 59.6044 359.506 61.1001 354.942 64.0916C350.416 67.0831 346.888 71.4361 344.356 77.1506C341.825 82.8267 340.56 89.7685 340.56 97.9759C340.56 106.183 341.806 113.163 344.299 118.916C346.792 124.669 350.32 129.06 354.884 132.09C359.448 135.082 364.837 136.577 371.05 136.577C376.687 136.577 381.501 135.58 385.489 133.586C389.516 131.553 392.584 128.696 394.694 125.014C396.842 121.332 397.915 116.979 397.915 111.955L402.978 112.703H372.603V93.9489H421.905V108.791C421.905 119.146 419.719 128.044 415.346 135.484C410.974 142.886 404.953 148.601 397.283 152.628C389.612 156.616 380.829 158.611 370.935 158.611C359.889 158.611 350.186 156.175 341.825 151.305C333.464 146.396 326.945 139.435 322.266 130.422C317.625 121.371 315.305 110.632 315.305 98.206C315.305 88.6562 316.685 80.142 319.447 72.6633C322.246 65.1463 326.158 58.7798 331.182 53.5639C336.207 48.348 342.055 44.3785 348.729 41.6555C355.402 38.9325 362.631 37.571 370.417 37.571C377.09 37.571 383.303 38.549 389.056 40.505C394.809 42.4226 399.91 45.1456 404.359 48.674C408.846 52.2024 412.508 56.402 415.346 61.2727C418.185 66.1051 420.006 71.4361 420.812 77.2656H395.499ZM424.416 157V39.1818H470.899C479.797 39.1818 487.39 40.7734 493.68 43.9567C500.008 47.1016 504.821 51.5696 508.12 57.3608C511.456 63.1136 513.125 69.8828 513.125 77.6683C513.125 85.4922 511.437 92.223 508.062 97.8608C504.687 103.46 499.797 107.756 493.392 110.747C487.026 113.739 479.317 115.234 470.266 115.234H439.143V95.2145H466.239C470.995 95.2145 474.945 94.5625 478.09 93.2585C481.235 91.9545 483.574 89.9986 485.108 87.3906C486.681 84.7827 487.467 81.5419 487.467 77.6683C487.467 73.7564 486.681 70.4581 485.108 67.7734C483.574 65.0888 481.216 63.0561 478.032 61.6754C474.887 60.2564 470.918 59.5469 466.124 59.5469H449.326V157H424.416ZM488.042 103.384L517.324 157H489.826L461.176 103.384H488.042ZM514.528 157V39.1818H593.918V59.7195H539.438V87.7933H589.833V108.331H539.438V136.462H594.148V157H514.528ZM617.829 157H591.136L631.809 39.1818H663.909L704.525 157H677.831L648.319 66.1051H647.399L617.829 157ZM616.161 110.69H679.212V130.134H616.161V110.69ZM683.622 59.7195V39.1818H780.384V59.7195H744.314V157H719.692V59.7195H683.622Z" fill="black" />
    <path d="M15.2 199V171H19.2V199H15.2ZM49.9428 177.6C51.6761 177.6 53.1961 177.933 54.5028 178.6C55.8361 179.267 56.8761 180.28 57.6228 181.64C58.3695 183 58.7428 184.72 58.7428 186.8V199H54.9028V187.24C54.9028 185.187 54.3961 183.64 53.3828 182.6C52.3961 181.56 50.9961 181.04 49.1828 181.04C47.8228 181.04 46.6361 181.307 45.6228 181.84C44.6095 182.373 43.8228 183.16 43.2628 184.2C42.7295 185.24 42.4628 186.533 42.4628 188.08V199H38.6228V177.8H42.3028V183.52L41.7028 182C42.3961 180.613 43.4628 179.533 44.9028 178.76C46.3428 177.987 48.0228 177.6 49.9428 177.6ZM88.7694 177.6C90.5027 177.6 92.0227 177.933 93.3294 178.6C94.6627 179.267 95.7027 180.28 96.4494 181.64C97.196 183 97.5694 184.72 97.5694 186.8V199H93.7294V187.24C93.7294 185.187 93.2227 183.64 92.2094 182.6C91.2227 181.56 89.8227 181.04 88.0094 181.04C86.6494 181.04 85.4627 181.307 84.4494 181.84C83.436 182.373 82.6494 183.16 82.0894 184.2C81.556 185.24 81.2894 186.533 81.2894 188.08V199H77.4494V177.8H81.1294V183.52L80.5294 182C81.2227 180.613 82.2894 179.533 83.7294 178.76C85.1694 177.987 86.8494 177.6 88.7694 177.6ZM125.356 199.24C123.223 199.24 121.329 198.773 119.676 197.84C118.023 196.907 116.716 195.627 115.756 194C114.796 192.347 114.316 190.48 114.316 188.4C114.316 186.293 114.796 184.427 115.756 182.8C116.716 181.173 118.023 179.907 119.676 179C121.329 178.067 123.223 177.6 125.356 177.6C127.463 177.6 129.343 178.067 130.996 179C132.676 179.907 133.983 181.173 134.916 182.8C135.876 184.4 136.356 186.267 136.356 188.4C136.356 190.507 135.876 192.373 134.916 194C133.983 195.627 132.676 196.907 130.996 197.84C129.343 198.773 127.463 199.24 125.356 199.24ZM125.356 195.88C126.716 195.88 127.929 195.573 128.996 194.96C130.089 194.347 130.943 193.48 131.556 192.36C132.169 191.213 132.476 189.893 132.476 188.4C132.476 186.88 132.169 185.573 131.556 184.48C130.943 183.36 130.089 182.493 128.996 181.88C127.929 181.267 126.716 180.96 125.356 180.96C123.996 180.96 122.783 181.267 121.716 181.88C120.649 182.493 119.796 183.36 119.156 184.48C118.516 185.573 118.196 186.88 118.196 188.4C118.196 189.893 118.516 191.213 119.156 192.36C119.796 193.48 120.649 194.347 121.716 194.96C122.783 195.573 123.996 195.88 125.356 195.88ZM158.241 199L148.961 177.8H152.961L161.201 197H159.281L167.681 177.8H171.441L162.161 199H158.241ZM199.12 199V194.52L198.92 193.68V186.04C198.92 184.413 198.44 183.16 197.48 182.28C196.547 181.373 195.134 180.92 193.24 180.92C191.987 180.92 190.76 181.133 189.56 181.56C188.36 181.96 187.347 182.507 186.52 183.2L184.92 180.32C186.014 179.44 187.32 178.773 188.84 178.32C190.387 177.84 192 177.6 193.68 177.6C196.587 177.6 198.827 178.307 200.4 179.72C201.974 181.133 202.76 183.293 202.76 186.2V199H199.12ZM192.16 199.24C190.587 199.24 189.2 198.973 188 198.44C186.827 197.907 185.92 197.173 185.28 196.24C184.64 195.28 184.32 194.2 184.32 193C184.32 191.853 184.587 190.813 185.12 189.88C185.68 188.947 186.574 188.2 187.8 187.64C189.054 187.08 190.734 186.8 192.84 186.8H199.56V189.56H193C191.08 189.56 189.787 189.88 189.12 190.52C188.454 191.16 188.12 191.933 188.12 192.84C188.12 193.88 188.534 194.72 189.36 195.36C190.187 195.973 191.334 196.28 192.8 196.28C194.24 196.28 195.494 195.96 196.56 195.32C197.654 194.68 198.44 193.747 198.92 192.52L199.68 195.16C199.174 196.413 198.28 197.413 197 198.16C195.72 198.88 194.107 199.24 192.16 199.24ZM228.747 199.24C226.613 199.24 224.96 198.667 223.787 197.52C222.613 196.373 222.027 194.733 222.027 192.6V173.16H225.867V192.44C225.867 193.587 226.147 194.467 226.707 195.08C227.293 195.693 228.12 196 229.187 196C230.387 196 231.387 195.667 232.187 195L233.387 197.76C232.8 198.267 232.093 198.64 231.267 198.88C230.467 199.12 229.627 199.24 228.747 199.24ZM218.427 180.96V177.8H231.947V180.96H218.427ZM258.366 199.24C256.099 199.24 254.099 198.773 252.366 197.84C250.659 196.907 249.326 195.627 248.366 194C247.433 192.373 246.966 190.507 246.966 188.4C246.966 186.293 247.419 184.427 248.326 182.8C249.259 181.173 250.526 179.907 252.126 179C253.753 178.067 255.579 177.6 257.606 177.6C259.659 177.6 261.473 178.053 263.046 178.96C264.619 179.867 265.846 181.147 266.726 182.8C267.633 184.427 268.086 186.333 268.086 188.52C268.086 188.68 268.073 188.867 268.046 189.08C268.046 189.293 268.033 189.493 268.006 189.68H249.966V186.92H266.006L264.446 187.88C264.473 186.52 264.193 185.307 263.606 184.24C263.019 183.173 262.206 182.347 261.166 181.76C260.153 181.147 258.966 180.84 257.606 180.84C256.273 180.84 255.086 181.147 254.046 181.76C253.006 182.347 252.193 183.187 251.606 184.28C251.019 185.347 250.726 186.573 250.726 187.96V188.6C250.726 190.013 251.046 191.28 251.686 192.4C252.353 193.493 253.273 194.347 254.446 194.96C255.619 195.573 256.966 195.88 258.486 195.88C259.739 195.88 260.873 195.667 261.886 195.24C262.926 194.813 263.833 194.173 264.606 193.32L266.726 195.8C265.766 196.92 264.566 197.773 263.126 198.36C261.713 198.947 260.126 199.24 258.366 199.24ZM568.338 199V171H572.338V199H568.338ZM603.08 177.6C604.814 177.6 606.334 177.933 607.64 178.6C608.974 179.267 610.014 180.28 610.76 181.64C611.507 183 611.88 184.72 611.88 186.8V199H608.04V187.24C608.04 185.187 607.534 183.64 606.52 182.6C605.534 181.56 604.134 181.04 602.32 181.04C600.96 181.04 599.774 181.307 598.76 181.84C597.747 182.373 596.96 183.16 596.4 184.2C595.867 185.24 595.6 186.533 595.6 188.08V199H591.76V177.8H595.44V183.52L594.84 182C595.534 180.613 596.6 179.533 598.04 178.76C599.48 177.987 601.16 177.6 603.08 177.6ZM636.667 199.24C634.907 199.24 633.227 199 631.627 198.52C630.054 198.04 628.814 197.453 627.907 196.76L629.507 193.72C630.414 194.333 631.534 194.853 632.867 195.28C634.2 195.707 635.56 195.92 636.947 195.92C638.734 195.92 640.014 195.667 640.787 195.16C641.587 194.653 641.987 193.947 641.987 193.04C641.987 192.373 641.747 191.853 641.267 191.48C640.787 191.107 640.147 190.827 639.347 190.64C638.574 190.453 637.707 190.293 636.747 190.16C635.787 190 634.827 189.813 633.867 189.6C632.907 189.36 632.027 189.04 631.227 188.64C630.427 188.213 629.787 187.64 629.307 186.92C628.827 186.173 628.587 185.187 628.587 183.96C628.587 182.68 628.947 181.56 629.667 180.6C630.387 179.64 631.4 178.907 632.707 178.4C634.04 177.867 635.614 177.6 637.427 177.6C638.814 177.6 640.214 177.773 641.627 178.12C643.067 178.44 644.24 178.907 645.147 179.52L643.507 182.56C642.547 181.92 641.547 181.48 640.507 181.24C639.467 181 638.427 180.88 637.387 180.88C635.707 180.88 634.454 181.16 633.627 181.72C632.8 182.253 632.387 182.947 632.387 183.8C632.387 184.52 632.627 185.08 633.107 185.48C633.614 185.853 634.254 186.147 635.027 186.36C635.827 186.573 636.707 186.76 637.667 186.92C638.627 187.053 639.587 187.24 640.547 187.48C641.507 187.693 642.374 188 643.147 188.4C643.947 188.8 644.587 189.36 645.067 190.08C645.574 190.8 645.827 191.76 645.827 192.96C645.827 194.24 645.454 195.347 644.707 196.28C643.96 197.213 642.907 197.947 641.547 198.48C640.187 198.987 638.56 199.24 636.667 199.24ZM673.466 199.24C671.706 199.24 670.093 198.84 668.626 198.04C667.186 197.213 666.026 196 665.146 194.4C664.293 192.8 663.866 190.8 663.866 188.4C663.866 186 664.279 184 665.106 182.4C665.959 180.8 667.106 179.6 668.546 178.8C670.013 178 671.653 177.6 673.466 177.6C675.546 177.6 677.386 178.053 678.986 178.96C680.586 179.867 681.853 181.133 682.786 182.76C683.719 184.36 684.186 186.24 684.186 188.4C684.186 190.56 683.719 192.453 682.786 194.08C681.853 195.707 680.586 196.973 678.986 197.88C677.386 198.787 675.546 199.24 673.466 199.24ZM662.226 206.76V177.8H665.906V183.52L665.666 188.44L666.066 193.36V206.76H662.226ZM673.146 195.88C674.506 195.88 675.719 195.573 676.786 194.96C677.879 194.347 678.733 193.48 679.346 192.36C679.986 191.213 680.306 189.893 680.306 188.4C680.306 186.88 679.986 185.573 679.346 184.48C678.733 183.36 677.879 182.493 676.786 181.88C675.719 181.267 674.506 180.96 673.146 180.96C671.813 180.96 670.599 181.267 669.506 181.88C668.439 182.493 667.586 183.36 666.946 184.48C666.333 185.573 666.026 186.88 666.026 188.4C666.026 189.893 666.333 191.213 666.946 192.36C667.586 193.48 668.439 194.347 669.506 194.96C670.599 195.573 671.813 195.88 673.146 195.88ZM701.092 199V177.8H704.932V199H701.092ZM703.012 173.72C702.265 173.72 701.638 173.48 701.132 173C700.652 172.52 700.412 171.933 700.412 171.24C700.412 170.52 700.652 169.92 701.132 169.44C701.638 168.96 702.265 168.72 703.012 168.72C703.758 168.72 704.372 168.96 704.852 169.44C705.358 169.893 705.612 170.467 705.612 171.16C705.612 171.88 705.372 172.493 704.892 173C704.412 173.48 703.785 173.72 703.012 173.72ZM723.863 199V177.8H727.543V183.56L727.183 182.12C727.77 180.653 728.757 179.533 730.143 178.76C731.53 177.987 733.237 177.6 735.263 177.6V181.32C735.103 181.293 734.943 181.28 734.783 181.28C734.65 181.28 734.517 181.28 734.383 181.28C732.33 181.28 730.703 181.893 729.503 183.12C728.303 184.347 727.703 186.12 727.703 188.44V199H723.863ZM760.841 199.24C758.574 199.24 756.574 198.773 754.841 197.84C753.134 196.907 751.801 195.627 750.841 194C749.908 192.373 749.441 190.507 749.441 188.4C749.441 186.293 749.894 184.427 750.801 182.8C751.734 181.173 753.001 179.907 754.601 179C756.228 178.067 758.054 177.6 760.081 177.6C762.134 177.6 763.948 178.053 765.521 178.96C767.094 179.867 768.321 181.147 769.201 182.8C770.108 184.427 770.561 186.333 770.561 188.52C770.561 188.68 770.548 188.867 770.521 189.08C770.521 189.293 770.508 189.493 770.481 189.68H752.441V186.92H768.481L766.921 187.88C766.948 186.52 766.668 185.307 766.081 184.24C765.494 183.173 764.681 182.347 763.641 181.76C762.628 181.147 761.441 180.84 760.081 180.84C758.748 180.84 757.561 181.147 756.521 181.76C755.481 182.347 754.668 183.187 754.081 184.28C753.494 185.347 753.201 186.573 753.201 187.96V188.6C753.201 190.013 753.521 191.28 754.161 192.4C754.828 193.493 755.748 194.347 756.921 194.96C758.094 195.573 759.441 195.88 760.961 195.88C762.214 195.88 763.348 195.667 764.361 195.24C765.401 194.813 766.308 194.173 767.081 193.32L769.201 195.8C768.241 196.92 767.041 197.773 765.601 198.36C764.188 198.947 762.601 199.24 760.841 199.24Z" fill="black" />
    <path d="M307.04 199V171H313.52V199H307.04ZM344.405 177.16C346.112 177.16 347.632 177.507 348.965 178.2C350.325 178.867 351.392 179.907 352.165 181.32C352.939 182.707 353.325 184.493 353.325 186.68V199H347.085V187.64C347.085 185.907 346.699 184.627 345.925 183.8C345.179 182.973 344.112 182.56 342.725 182.56C341.739 182.56 340.845 182.773 340.045 183.2C339.272 183.6 338.659 184.227 338.205 185.08C337.779 185.933 337.565 187.027 337.565 188.36V199H331.325V177.48H337.285V183.44L336.165 181.64C336.939 180.2 338.045 179.093 339.485 178.32C340.925 177.547 342.565 177.16 344.405 177.16ZM381.138 199.32C378.818 199.32 376.751 198.853 374.938 197.92C373.124 196.96 371.698 195.64 370.658 193.96C369.644 192.28 369.138 190.373 369.138 188.24C369.138 186.08 369.644 184.173 370.658 182.52C371.698 180.84 373.124 179.533 374.938 178.6C376.751 177.64 378.818 177.16 381.138 177.16C383.404 177.16 385.378 177.64 387.058 178.6C388.738 179.533 389.978 180.88 390.778 182.64L385.938 185.24C385.378 184.227 384.671 183.48 383.818 183C382.991 182.52 382.084 182.28 381.098 182.28C380.031 182.28 379.071 182.52 378.218 183C377.364 183.48 376.684 184.16 376.178 185.04C375.698 185.92 375.458 186.987 375.458 188.24C375.458 189.493 375.698 190.56 376.178 191.44C376.684 192.32 377.364 193 378.218 193.48C379.071 193.96 380.031 194.2 381.098 194.2C382.084 194.2 382.991 193.973 383.818 193.52C384.671 193.04 385.378 192.28 385.938 191.24L390.778 193.88C389.978 195.613 388.738 196.96 387.058 197.92C385.378 198.853 383.404 199.32 381.138 199.32ZM405.853 199V169.32H412.093V199H405.853ZM438.565 199.32C436.778 199.32 435.178 198.973 433.765 198.28C432.378 197.587 431.298 196.533 430.525 195.12C429.751 193.68 429.365 191.853 429.365 189.64V177.48H435.605V188.72C435.605 190.507 435.978 191.827 436.725 192.68C437.498 193.507 438.578 193.92 439.965 193.92C440.925 193.92 441.778 193.72 442.525 193.32C443.271 192.893 443.858 192.253 444.285 191.4C444.711 190.52 444.925 189.427 444.925 188.12V177.48H451.165V199H445.245V193.08L446.325 194.8C445.605 196.293 444.538 197.427 443.125 198.2C441.738 198.947 440.218 199.32 438.565 199.32ZM477.786 199.32C475.759 199.32 473.932 198.867 472.306 197.96C470.679 197.027 469.386 195.733 468.426 194.08C467.492 192.427 467.026 190.48 467.026 188.24C467.026 185.973 467.492 184.013 468.426 182.36C469.386 180.707 470.679 179.427 472.306 178.52C473.932 177.613 475.759 177.16 477.786 177.16C479.599 177.16 481.186 177.56 482.546 178.36C483.906 179.16 484.959 180.373 485.706 182C486.452 183.627 486.826 185.707 486.826 188.24C486.826 190.747 486.466 192.827 485.746 194.48C485.026 196.107 483.986 197.32 482.626 198.12C481.292 198.92 479.679 199.32 477.786 199.32ZM478.866 194.2C479.879 194.2 480.799 193.96 481.626 193.48C482.452 193 483.106 192.32 483.586 191.44C484.092 190.533 484.346 189.467 484.346 188.24C484.346 186.987 484.092 185.92 483.586 185.04C483.106 184.16 482.452 183.48 481.626 183C480.799 182.52 479.879 182.28 478.866 182.28C477.826 182.28 476.892 182.52 476.066 183C475.239 183.48 474.572 184.16 474.066 185.04C473.586 185.92 473.346 186.987 473.346 188.24C473.346 189.467 473.586 190.533 474.066 191.44C474.572 192.32 475.239 193 476.066 193.48C476.892 193.96 477.826 194.2 478.866 194.2ZM484.506 199V194.6L484.626 188.2L484.226 181.84V169.32H490.466V199H484.506ZM518.521 199.32C516.068 199.32 513.908 198.84 512.041 197.88C510.201 196.92 508.774 195.613 507.761 193.96C506.748 192.28 506.241 190.373 506.241 188.24C506.241 186.08 506.734 184.173 507.721 182.52C508.734 180.84 510.108 179.533 511.841 178.6C513.574 177.64 515.534 177.16 517.721 177.16C519.828 177.16 521.721 177.613 523.401 178.52C525.108 179.4 526.454 180.68 527.441 182.36C528.428 184.013 528.921 186 528.921 188.32C528.921 188.56 528.908 188.84 528.881 189.16C528.854 189.453 528.828 189.733 528.801 190H511.321V186.36H525.521L523.121 187.44C523.121 186.32 522.894 185.347 522.441 184.52C521.988 183.693 521.361 183.053 520.561 182.6C519.761 182.12 518.828 181.88 517.761 181.88C516.694 181.88 515.748 182.12 514.921 182.6C514.121 183.053 513.494 183.707 513.041 184.56C512.588 185.387 512.361 186.373 512.361 187.52V188.48C512.361 189.653 512.614 190.693 513.121 191.6C513.654 192.48 514.388 193.16 515.321 193.64C516.281 194.093 517.401 194.32 518.681 194.32C519.828 194.32 520.828 194.147 521.681 193.8C522.561 193.453 523.361 192.933 524.081 192.24L527.401 195.84C526.414 196.96 525.174 197.827 523.681 198.44C522.188 199.027 520.468 199.32 518.521 199.32Z" fill="#111111" />
</svg>
    